# xmcd CD database file
#
# Track frame offsets:
#	150
#	12628
#	35588
#	51844
#	62765
#	77356
#	91113
#	117500
#	128329
#	138377
#	151672
#	157862
#	169828
#	186086
#	201581
#	214719
#	243012
#	255017
#	270350
#
# Disc length: 3823 seconds
#
# Revision: 0
# Processed by: cddbd v1.5.2PL0 Copyright (c) Steve Scherf et al.
# Submitted via: CDex 1.51
#
DISCID=ec0eed13
DTITLE=Various Artist - Woody Allen and La Musique - De Manhattan à Magic In The Moonlight - CD1
DYEAR=2016
DGENRE=Jazz
TTITLE0=Leo Reisman and His Orchestra - You Do Something To Me
TTITLE1=Louis Armstrong and the All-Stars - Back O'Town Blues
TTITLE2=Domenico Modugno and His San Remo Orchestra - Nel Blu Dipinto Di Blu (Volare)
TTITLE3=Josephine Baker - La Conga Blicoti
TTITLE4=Sidney Bechet - Si tu vois ma Mere
TTITLE5=Benny Goodman and His Orchestra - If I Had You
TTITLE6=Stan Getz and Charlie Byrd - Desafinado
TTITLE7=Giulia y Los Tellarini - Barcelona
TTITLE8=Giulia y Los Tellarini - La Ley Del Retiro
TTITLE9=Michael Riesman - Cassandra's Dream Final
TTITLE10=Michael Riesman - The Cockney Brothers
TTITLE11=Xavier Cugat and His Orchestra - Miami Beach Rumba
TTITLE12=Enrico Caruso - Mal Reggenda All'aspro Assalto
TTITLE13=Enrico Caruso - Mi Par d'Udir Encora
TTITLE14=Duke Ellington and His Orchestra - Take The A Train
TTITLE15=Erroll Garner - Will You Still Be Mine
TTITLE16=Duke Ellington and His Orchestra - Sophisticated Lady
TTITLE17=Glenn Miller and His 0rchestra - Sunrise Serenade
TTITLE18=Bunny Berrigan and His Orchestra - Caravan
EXTD=YEAR: 2016
EXTT0=
EXTT1=
EXTT2=
EXTT3=
EXTT4=
EXTT5=
EXTT6=
EXTT7=
EXTT8=
EXTT9=
EXTT10=
EXTT11=
EXTT12=
EXTT13=
EXTT14=
EXTT15=
EXTT16=
EXTT17=
EXTT18=
PLAYORDER=
